<svg xmlns="http://www.w3.org/2000/svg" viewBox="0 0 364.66 118.61"><defs><style>.cls-1{fill:#7cda08;}</style></defs><g id="Layer_2" data-name="Layer 2"><g id="Layer_1-2" data-name="Layer 1"><path class="cls-1" d="M124.84,56.62a5.78,5.78,0,0,1-.43,2.22,5.38,5.38,0,0,1-1.2,1.78,5.64,5.64,0,0,1-4,1.6H94.15A34.22,34.22,0,0,1,87,61.45a31.9,31.9,0,0,1-7-2.37A30,30,0,0,1,73.53,55a26.5,26.5,0,0,1-5.25-5.88,29.09,29.09,0,0,1-3.53-7.79,35,35,0,0,1-1.28-9.78V.86H74.6V31.54a21.43,21.43,0,0,0,1.3,8,17.67,17.67,0,0,0,3.32,5.44,16.1,16.1,0,0,0,4.41,3.42,23.47,23.47,0,0,0,4.55,1.84A21.9,21.9,0,0,0,92,51q1.65.15,2.16.15h19.56V.86h11.13Z"/><path class="cls-1" d="M292.34,37.4a26.9,26.9,0,0,1-1.93,10.32A24,24,0,0,1,277,61.18a26.8,26.8,0,0,1-10.2,1.9H251.68a26.94,26.94,0,0,1-10.22-1.9,24.32,24.32,0,0,1-8.14-5.33A24.74,24.74,0,0,1,228,47.72,26.72,26.72,0,0,1,226,37.4V25.68A26.71,26.71,0,0,1,228,15.39a24.47,24.47,0,0,1,5.37-8.14,24.76,24.76,0,0,1,8.14-5.32A26.57,26.57,0,0,1,251.68,0h15.07A26.43,26.43,0,0,1,277,1.93a24.63,24.63,0,0,1,8.11,5.32,24,24,0,0,1,5.35,8.14,26.89,26.89,0,0,1,1.93,10.29ZM281.21,25.68a16.19,16.19,0,0,0-1-6,12.87,12.87,0,0,0-7.53-7.53,15.93,15.93,0,0,0-5.88-1H251.68a16.07,16.07,0,0,0-5.92,1,13.32,13.32,0,0,0-4.6,3,12.93,12.93,0,0,0-3,4.58,16.19,16.19,0,0,0-1.05,6V37.4a16.19,16.19,0,0,0,1.05,6,12.93,12.93,0,0,0,3,4.58,13.34,13.34,0,0,0,4.6,3,16.07,16.07,0,0,0,5.92,1h15a16.09,16.09,0,0,0,5.93-1,13.44,13.44,0,0,0,4.6-3,13,13,0,0,0,3-4.58,16.19,16.19,0,0,0,1-6Z"/><path class="cls-1" d="M364.66,57.47a5.49,5.49,0,0,1-.45,2.23A5.79,5.79,0,0,1,363,61.48a5.3,5.3,0,0,1-1.78,1.17,5.51,5.51,0,0,1-2.18.43A6.15,6.15,0,0,1,357,62.7a4.78,4.78,0,0,1-1.86-1.25L314.46,19V62.22H303.34V5.61a5.37,5.37,0,0,1,1-3.11A5.94,5.94,0,0,1,306.76.43,5.58,5.58,0,0,1,310,.11a5.23,5.23,0,0,1,2.87,1.56l40.66,42.41V.86h11.12Z"/><path class="cls-1" d="M11.89,87.79H1.47V84.11H26.72v3.68H16.3v30.82H11.89Z"/><path class="cls-1" d="M66,84.11H85.88v3.68H70.36V98.63h13.1v3.73H70.36v12.52h16v3.73H66Z"/><path class="cls-1" d="M142.57,108.09H130l-3.31,10.52h-4.48l11.68-34.5h4.94l11.68,34.5h-4.68Zm-1.11-3.52-1.63-5.26q-.95-2.9-1.79-5.76t-1.68-5.86h-.21q-.79,3-1.63,5.86t-1.79,5.76l-1.63,5.26Z"/><path class="cls-1" d="M188.47,84.11h5.26l6.63,18.41q.63,1.78,1.23,3.6c.41,1.21.82,2.41,1.24,3.6H203c.42-1.19.82-2.39,1.18-3.6s.77-2.41,1.19-3.6l6.52-18.41h5.31v34.5h-4.1v-19q0-2.32.21-5.1c.14-1.86.26-3.56.37-5.11h-.21l-2.74,7.84-6.52,17.88h-2.89l-6.52-17.88-2.74-7.84h-.21c.11,1.55.22,3.25.34,5.11s.19,3.55.19,5.1v19h-3.95Z"/><polygon class="cls-1" points="332.21 84.11 332.21 99.4 269.5 99.4 269.5 94.39 259.17 101.21 269.5 107.92 269.5 103.01 335.79 103.01 335.79 84.11 332.21 84.11"/><rect class="cls-1" x="204.91" y="25.93" width="11.13" height="36.29"/><path class="cls-1" d="M153.25.86a19.91,19.91,0,0,0-5.82,1,17,17,0,0,0-10.25,8.73A18.34,18.34,0,0,0,135.41,19a18.45,18.45,0,0,0,1.77,8.47,17,17,0,0,0,4.45,5.61,17.45,17.45,0,0,0,5.8,3.1,19.62,19.62,0,0,0,5.82,1h25.6a7.42,7.42,0,0,1,2.8.51,6,6,0,0,1,2.14,1.46,6.55,6.55,0,0,1,1.35,2.22,8.28,8.28,0,0,1,.47,2.83,7,7,0,0,1-1.78,5,6.49,6.49,0,0,1-5,1.89H135.92V62.22h42.93a19.07,19.07,0,0,0,3.83-.42,19.56,19.56,0,0,0,4-1.33,20,20,0,0,0,3.81-2.31,15,15,0,0,0,3.21-3.42,18,18,0,0,0,2.2-4.65,19.42,19.42,0,0,0,.83-5.92,19.92,19.92,0,0,0-.81-5.91,17,17,0,0,0-2.2-4.62,16.21,16.21,0,0,0-3.19-3.45,19.44,19.44,0,0,0-7.79-3.76,19.75,19.75,0,0,0-3.81-.5H153.25a6.5,6.5,0,0,1-4.94-1.86A7.06,7.06,0,0,1,146.53,19a7.22,7.22,0,0,1,1.78-5.09A6.36,6.36,0,0,1,153.25,12H216V6.47a5.51,5.51,0,0,0-.44-2.18,5.49,5.49,0,0,0-1.17-1.8,5.18,5.18,0,0,0-1.78-1.2,5.63,5.63,0,0,0-2.22-.43Z"/><path class="cls-1" d="M55.73,12V.85H5.61a5.64,5.64,0,0,0-2.22.44,4.87,4.87,0,0,0-1.78,1.2A5.55,5.55,0,0,0,.44,4.28,5.55,5.55,0,0,0,0,6.46V12Z"/><polygon class="cls-1" points="0 25.93 0 62.22 11.13 62.22 11.13 37.15 50.76 37.15 50.76 25.93 0 25.93"/></g></g></svg>